<svg width="75" height="80" viewBox="0 0 75 80" fill="none" xmlns="http://www.w3.org/2000/svg">
<path d="M27.2818 48.0888C27.2818 48.2508 27.2818 48.431 27.2818 48.6111C27.2818 52.4948 27.2886 56.3788 27.2731 60.2625C27.2713 60.7403 27.4207 61.0848 27.7582 61.4178C29.8136 63.4454 31.8523 65.4912 33.8973 67.5296C34.02 67.6517 34.1508 67.7656 34.3588 67.9585V57.2515C34.773 57.4457 34.9778 57.7688 35.2462 58.0134C35.525 58.268 35.7848 58.5435 36.0532 58.8099C36.3107 59.0653 36.5673 59.3217 36.8257 59.5768C37.0932 59.8409 37.3621 60.1041 37.6514 60.3891C38.8063 59.2913 39.8703 58.1414 41.0974 57.0042C41.1837 57.6168 41.1374 58.1255 41.1456 58.6306C41.1542 59.1443 41.1478 59.658 41.1478 60.1722C41.1478 60.6859 41.1478 61.2 41.1478 61.7137C41.1478 62.2274 41.1478 62.7416 41.1478 63.2553C41.1478 63.769 41.1478 64.2831 41.1478 64.7968C41.1478 65.3105 41.1478 65.8247 41.1478 66.3384C41.1478 66.8444 41.1478 67.3508 41.1478 67.9548C41.3363 67.7878 41.4499 67.6975 41.552 67.5954C43.6507 65.5034 45.7443 63.4064 47.8497 61.3216C48.1186 61.0557 48.2276 60.7766 48.2271 60.4009C48.2199 56.5173 48.2267 52.6332 48.2294 48.7496C48.2294 48.6134 48.2371 48.4773 48.2289 48.3416C48.2153 48.1161 48.3089 47.9699 48.5187 47.8851C48.7707 47.7834 49.0183 47.6718 49.2671 47.5624C51.0224 46.7914 52.7768 46.019 54.5325 45.2494C54.6797 45.185 54.8336 45.1355 55.0326 45.0615C55.0326 45.2694 55.0326 45.4187 55.0326 45.5675C55.0335 51.0835 55.0303 56.5994 55.0426 62.1153C55.0435 62.5755 54.8981 62.9127 54.5752 63.2349C49.0923 68.6986 43.6175 74.1705 38.1405 79.6402C38.0242 79.7564 37.902 79.8662 37.7603 80.0001C37.62 79.8698 37.496 79.7623 37.3807 79.647C31.8827 74.1556 26.3866 68.6619 20.8837 63.1759C20.5944 62.8877 20.4691 62.5877 20.47 62.1761C20.4822 56.6452 20.48 51.1139 20.4813 45.5829C20.4813 45.4477 20.4813 45.3129 20.4813 45.1763C20.9436 45.2027 26.5864 47.6228 27.2818 48.0902V48.0888Z" fill="white"/>
<path d="M54.7578 10.3916C54.9567 10.382 55.1561 10.373 55.409 10.3607C55.3237 10.1701 55.2592 10.0213 55.1911 9.87424C54.5021 8.37988 53.8027 6.8896 53.1288 5.38842C52.938 4.96367 52.8136 4.50805 52.6751 4.06151C52.6356 3.93354 52.6528 3.78833 52.6437 3.65082C52.6787 3.63403 52.7137 3.6177 52.7486 3.6009C52.8681 3.70301 53.008 3.78923 53.1029 3.9104C53.5779 4.51622 54.0961 5.09754 54.498 5.7492C55.4336 7.26534 56.3251 8.80962 57.2038 10.3598C57.4296 10.7582 57.6852 11.0106 58.1476 11.1009C58.7089 11.2107 59.2557 11.3954 59.8107 11.5401C59.9851 11.5855 60.1663 11.6368 60.3434 11.6327C60.7131 11.6245 60.8611 11.3917 60.6976 11.0587C60.312 10.2731 59.9328 9.48216 59.5014 8.72159C58.4727 6.90865 57.3964 5.12295 56.3787 3.30367C55.9672 2.56806 55.6529 1.77708 55.3073 1.00562C55.2056 0.777814 55.0898 0.537753 55.1911 0.269557C55.4299 0.17789 55.5848 0.325829 55.7179 0.455162C56.1084 0.833177 56.5067 1.20756 56.8569 1.62143C58.47 3.52875 59.9001 5.57131 61.2599 7.66378C62.9071 10.1987 64.4843 12.7772 65.8599 15.4705C66.3045 16.3413 66.637 17.2707 66.993 18.1838C67.1029 18.466 67.2478 18.6231 67.5466 18.7034C68.3532 18.9194 69.1094 19.2616 69.8097 19.7217C69.8823 19.7694 69.9636 19.8029 70.1208 19.8846C70.0944 19.6895 70.0972 19.5606 70.0586 19.4449C69.7861 18.6294 69.5504 17.798 69.2188 17.0071C68.3609 14.9613 67.2274 13.0767 65.8059 11.3659C65.1206 10.5409 64.4634 9.69136 63.8076 8.8423C63.5719 8.53734 63.3326 8.22331 63.2749 7.81671C63.4797 7.7078 63.6119 7.83486 63.7368 7.93016C64.1809 8.26915 64.6419 8.5918 65.0525 8.96845C67.5239 11.2352 69.7297 13.7325 71.6236 16.5056C72.5909 17.9219 73.2381 19.4644 73.664 21.1199C74.1736 23.1012 74.5692 25.0929 74.5587 27.1509C74.5515 28.5899 74.1904 29.9277 73.4865 31.1761C72.728 32.5207 71.7135 33.6556 70.5772 34.688C68.7897 36.3117 66.7978 37.6509 64.7223 38.8739C61.6722 40.6714 58.4864 42.2007 55.2655 43.6606C52.8445 44.7579 50.4179 45.8425 47.9982 46.9425C47.4646 47.1852 46.9201 47.3037 46.332 47.2978C44.7742 47.2824 43.2165 47.2914 41.6583 47.2905C41.5089 47.2905 41.3595 47.2905 41.1533 47.2905C41.146 47.4929 41.1338 47.6676 41.1338 47.8419C41.1338 50.1694 41.1229 52.497 41.1447 54.8241C41.1492 55.335 40.9943 55.709 40.6242 56.0602C39.7468 56.8925 38.9016 57.7583 38.0487 58.616C37.932 58.7336 37.8444 58.8792 37.7208 59.0412C37.5424 58.8824 37.4293 58.7907 37.3262 58.6886C36.4574 57.8255 35.5968 56.9542 34.7194 56.0997C34.4723 55.8592 34.3697 55.6001 34.371 55.2574C34.3801 52.8092 34.376 50.3609 34.3765 47.9122C34.3765 47.7321 34.3765 47.5519 34.3765 47.3146C34.1762 47.306 34.0013 47.2919 33.8265 47.2919C32.0117 47.291 30.1965 47.3028 28.3817 47.2837C28.0443 47.2801 27.6778 47.2197 27.3753 47.0777C23.4515 45.2353 19.5222 43.4046 15.6256 41.5064C12.7853 40.1228 10.0332 38.5703 7.41589 36.7928C5.98804 35.823 4.61424 34.7833 3.39894 33.5508C3.04924 33.1959 2.71862 32.8211 2.39618 32.4408C1.07051 30.8775 0.438791 29.0655 0.441061 27.0188C0.443332 25.0702 0.766232 23.1715 1.27715 21.2987C1.37252 20.9492 1.48379 20.6034 1.5669 20.2513C1.86936 18.9693 2.44204 17.8112 3.16142 16.718C5.21781 13.5913 7.67657 10.8163 10.4932 8.35582C10.7425 8.138 11.0218 7.95285 11.2966 7.76588C11.4115 7.68783 11.5505 7.64517 11.6781 7.58618C11.7017 7.60932 11.7253 7.63247 11.7489 7.65561C11.7171 7.76225 11.7044 7.88024 11.6495 7.97327C11.4805 8.25871 11.3157 8.5505 11.1127 8.81189C10.4728 9.63509 9.82016 10.4483 9.16482 11.2592C7.26284 13.6131 5.81638 16.2075 4.99028 19.13C4.93805 19.3146 4.8999 19.503 4.83905 19.758C5.00027 19.6768 5.09519 19.64 5.1783 19.5851C5.85225 19.1418 6.58025 18.8137 7.35185 18.584C7.58256 18.5155 7.77058 18.4252 7.84779 18.1756C8.53855 15.947 9.73387 13.9639 10.892 11.9644C12.59 9.0329 14.4134 6.18212 16.4589 3.47929C17.1606 2.55217 17.9231 1.67044 18.6697 0.777814C18.8427 0.570881 19.0576 0.395714 19.2696 0.226446C19.3777 0.140224 19.5217 0.0989285 19.727 0C19.727 0.198311 19.7524 0.31766 19.722 0.420673C19.6411 0.694768 19.5517 0.96841 19.4377 1.23025C18.7855 2.72915 17.9921 4.15363 17.1547 5.55542C16.5425 6.5801 15.9244 7.60206 15.3444 8.64489C14.9266 9.39593 14.566 10.1787 14.1818 10.9484C14.0937 11.1254 13.9952 11.3119 14.15 11.4975C14.3167 11.6972 14.5442 11.7067 14.7745 11.6463C15.5624 11.4385 16.3486 11.2234 17.1361 11.0128C17.3799 10.9475 17.4953 10.761 17.6047 10.5545C17.9581 9.88695 18.3123 9.21941 18.6811 8.56049C19.5826 6.9495 20.5849 5.40385 21.7275 3.95124C22.0014 3.60317 21.9991 3.60136 22.3647 3.51378C22.3547 3.65627 22.3656 3.78969 22.3324 3.91085C22.252 4.20128 22.1767 4.49716 22.054 4.7708C21.302 6.45213 20.5372 8.12802 19.7765 9.80572C19.6965 9.98224 19.6125 10.157 19.5099 10.3766C19.7383 10.3957 19.9191 10.4111 20.1557 10.4311C19.9722 10.6716 19.756 10.7818 19.5489 10.8844C19.2524 11.031 19.0971 11.2579 19.0103 11.5683C18.751 12.499 18.4772 13.4252 18.206 14.3528C18.1729 14.4662 18.1225 14.5747 18.0634 14.7295C17.6097 14.5529 17.1778 14.385 16.7455 14.2167C16.7178 14.2058 16.6669 14.1912 16.6674 14.179C16.6755 13.796 16.2868 13.7751 16.1142 13.5618C16.0243 13.4506 15.9816 13.2932 15.9425 13.1498C15.686 12.2154 14.5942 12.1959 14.0469 12.5512C13.9407 12.6202 13.8793 12.7926 13.8457 12.9292C13.7926 13.1448 13.8144 13.3662 13.5719 13.5119C13.2912 13.6812 13.0237 13.8196 12.6822 13.7538C11.8874 13.6004 11.8125 13.6567 11.406 14.3678C11.1031 14.8978 11.0214 15.4719 10.9514 16.0586C10.8702 16.7398 10.9074 17.4082 11.1059 18.0871C12.3184 18.1461 13.5351 18.2056 14.7954 18.2673C14.8807 17.9968 14.9693 17.7159 15.0692 17.3996C15.2554 17.5181 15.4266 17.612 15.582 17.7282C16.3631 18.3131 17.2382 17.9591 17.7492 17.4386C17.8332 17.3529 17.9108 17.2562 17.9717 17.1527C18.1774 16.8047 18.4313 16.5869 18.8823 16.6263C19.0898 16.6445 19.3105 16.5165 19.5244 16.4521C19.5957 16.4307 19.6693 16.3718 19.7338 16.3817C20.0758 16.433 20.4196 16.5673 20.7547 16.5451C21.1276 16.5206 21.4246 16.6599 21.8315 16.7933C21.6181 16.8805 21.4777 16.9454 21.3319 16.9953C20.8465 17.1618 20.3528 17.3057 19.8755 17.4922C19.5685 17.612 19.2787 17.7808 18.9944 17.951C18.9063 18.0036 18.8636 18.1311 18.8001 18.2246C18.8954 18.2882 18.9835 18.3694 19.0875 18.4107C19.1979 18.4542 19.3241 18.4542 19.4418 18.4824C20.5354 18.7438 21.6321 18.614 22.7321 18.5287C23.6209 18.4597 24.5133 18.4275 25.4048 18.3998C25.6868 18.3912 25.9706 18.4511 26.2626 18.4806C26.2735 18.7719 26.0773 18.8032 25.9134 18.8522C25.1182 19.0882 24.3275 19.3455 23.5232 19.5452C21.5141 20.0439 19.4772 20.4074 17.4317 20.7242C17.0638 20.7813 17.0602 20.7881 17.0198 21.1385C16.7101 23.8014 16.6315 26.4738 16.7614 29.149C16.8463 30.9002 17.0257 32.6468 17.563 34.3282C17.7455 34.8995 18.018 35.4432 18.2601 35.9945C18.6361 36.8518 20.2334 37.3582 21.0703 37.0691C21.4269 36.9461 21.6267 36.7043 21.6494 36.339C21.6689 36.0231 21.6785 35.7009 21.638 35.3887C21.5168 34.4498 21.5867 33.5195 21.7016 32.5879C21.7534 32.1685 21.782 31.7461 21.8488 31.3299C21.8996 31.0136 21.9432 30.9732 22.1717 30.7518C22.4768 30.8797 22.5922 31.1693 22.7166 31.4379C23.0877 32.238 23.3007 33.087 23.4469 33.9533C23.4896 34.2061 23.5196 34.4611 23.5446 34.7166C23.5795 35.0779 23.7407 35.3819 23.9669 35.6515C24.1399 35.8575 24.2971 35.8588 24.442 35.6315C24.6027 35.3787 24.7226 35.0987 24.8493 34.8255C25.2176 34.0314 25.5651 33.2273 25.9525 32.4431C26.1246 32.0941 26.383 31.7887 26.5837 31.4524C26.7758 31.1307 27.0002 30.8126 27.1114 30.4613C27.4948 29.2533 27.8304 28.0303 28.1946 26.8164C28.2895 26.4992 28.4185 26.1924 28.5388 25.8834C28.5888 25.755 28.6683 25.5989 28.824 25.6574C28.9235 25.6951 29.0221 25.8389 29.0479 25.9519C29.241 26.7865 29.2328 27.6314 29.1238 28.4751C28.9412 29.8909 28.4675 31.2319 28.0502 32.5883C27.6909 33.7559 27.3417 34.9286 27.0474 36.1139C26.8281 36.9983 26.7872 37.9123 26.9947 38.8104C27.0856 39.2029 27.2527 39.5805 27.4116 39.9535C27.5906 40.3737 27.9189 40.543 28.3862 40.5398C30.4735 40.5253 32.5608 40.5321 34.6481 40.5316C38.6409 40.5316 42.6343 40.5189 46.6272 40.543C47.3284 40.5471 47.7321 40.2652 47.976 39.6463C48.2639 38.9138 48.3438 38.1573 48.3002 37.3786C48.2353 36.221 47.9065 35.1228 47.5668 34.025C47.1385 32.6409 46.7044 31.2578 46.3129 29.8632C46.0677 28.9892 45.9391 28.0871 45.9918 27.174C46.015 26.7692 46.0917 26.3662 46.1639 25.966C46.1794 25.8816 46.2861 25.7486 46.3433 25.7518C46.441 25.7577 46.584 25.8335 46.619 25.917C46.7816 26.3063 46.9337 26.7025 47.0518 27.1073C47.3093 27.9913 47.5346 28.8844 47.7916 29.7688C47.9092 30.1736 48.0659 30.5671 48.2162 30.9619C48.2694 31.1017 48.3334 31.2482 48.4306 31.3585C49.3075 32.3537 49.7662 33.5726 50.2753 34.7652C50.3821 35.0148 50.4756 35.273 50.6114 35.5067C50.6963 35.6528 50.8326 35.838 50.9743 35.867C51.1918 35.9115 51.2831 35.6696 51.3848 35.5062C51.5992 35.1627 51.6505 34.7724 51.6937 34.3808C51.8017 33.3979 52.057 32.4526 52.4566 31.5491C52.5765 31.2786 52.6946 30.99 53.0052 30.8498C53.3063 31.0086 53.3436 31.3127 53.3758 31.585C53.5434 32.9954 53.7019 34.4071 53.5239 35.8316C53.4944 36.0667 53.5252 36.3136 53.557 36.5509C53.6024 36.8885 53.8191 37.0986 54.1452 37.1603C55.4499 37.4072 56.2002 37.1045 56.7788 36.1039C57.3001 35.2017 57.5835 34.2152 57.777 33.2046C58.2852 30.5498 58.4064 27.8674 58.2697 25.1728C58.2016 23.8304 58.0944 22.4899 58.0131 21.148C58.0022 20.9701 58.0213 20.7841 58.0613 20.6098C58.2702 19.6977 58.4846 18.7864 58.7094 17.8779C58.8224 17.4209 58.9641 17.3252 59.4764 17.3206C59.5146 17.4677 59.555 17.6242 59.5959 17.7808C59.7076 18.2119 60.0064 18.4783 60.4428 18.4524C61.4674 18.3916 62.4897 18.3009 63.5583 18.2187C63.5165 18.0549 63.4961 17.9269 63.452 17.8085C63.205 17.1432 62.9588 16.4775 62.6981 15.8177C62.5324 15.3974 62.5247 15.0067 62.7704 14.6074C63.1164 14.0447 63.21 13.3903 63.3821 12.7663C63.4284 12.5979 63.4112 12.4037 63.3871 12.2258C63.3281 11.7843 63.0855 11.6563 62.6877 11.8578C62.185 12.1124 61.7472 12.455 61.3425 12.8489C61.1204 13.0649 60.8543 13.236 60.5918 13.4397C60.4933 13.3281 60.4274 13.2687 60.3797 13.1974C60.0218 12.6638 59.2671 12.7473 58.9024 13.1071C58.7779 13.2301 58.7184 13.4438 58.6839 13.6263C58.6072 14.0292 58.232 14.2616 57.861 14.1005C57.5426 13.9621 57.2338 13.8023 56.9123 13.673C56.6493 13.5673 56.5017 13.3848 56.4245 13.1203C56.2724 12.5984 56.1057 12.0811 55.9549 11.5592C55.8705 11.2665 55.7161 11.0541 55.4304 10.9193C55.1879 10.8045 54.9681 10.6416 54.7383 10.4996C54.7455 10.4646 54.7528 10.4292 54.7601 10.3943L54.7578 10.3916ZM14.2222 21.1689C14.086 21.1689 14.0124 21.1621 13.9402 21.1698C12.8448 21.2905 11.7512 21.4316 10.654 21.5274C10.0223 21.5823 10.0972 21.6113 9.93733 22.1396C9.47364 23.6707 9.05991 25.215 8.79333 26.7942C8.58442 28.0308 8.40775 29.271 8.56443 30.5308C8.61893 30.9687 8.70613 31.0608 9.15437 31.128C9.54403 31.1865 9.79291 31.0735 9.92507 30.7368C10.0127 30.514 10.0668 30.2753 10.1149 30.0398C10.342 28.9325 10.5445 27.8193 10.7893 26.7161C11.0309 25.6275 11.3098 24.547 11.5795 23.4647C11.6172 23.3135 11.6935 23.1724 11.7521 23.0267C11.7862 23.0317 11.8202 23.0367 11.8543 23.0417C11.956 23.4125 11.9887 23.795 11.9937 24.1807C12.0155 25.9488 11.9233 27.7109 11.7212 29.4684C11.689 29.7475 11.719 30.0407 11.7662 30.3198C11.7907 30.4636 11.9156 30.5907 11.9951 30.7255C12.1159 30.6456 12.2567 30.5843 12.3529 30.4818C12.5278 30.2948 12.6491 30.0511 12.8412 29.8891C13.1886 29.5964 13.259 29.2184 13.3058 28.8032C13.5283 26.8396 13.7626 24.8773 13.9965 22.9151C14.0642 22.3474 14.1428 21.7815 14.2222 21.1689ZM63.0869 23.1066C63.3776 23.3117 63.4084 23.5663 63.4593 23.7882C63.9543 25.9333 64.4348 28.0816 64.9226 30.2285C64.9689 30.4337 65.0098 30.6451 65.0961 30.8344C65.2228 31.1139 65.5134 31.2174 65.8695 31.152C66.206 31.0899 66.3041 31.015 66.3264 30.6429C66.3604 30.072 66.3927 29.4961 66.3536 28.927C66.2233 27.0524 65.7891 25.2322 65.2941 23.4256C65.1392 22.8611 64.9585 22.3038 64.7863 21.732C63.4425 21.5682 62.1332 21.4112 60.7925 21.2941C60.8075 21.4575 60.8121 21.5619 60.8266 21.6644C60.9197 22.3066 61.031 22.946 61.1068 23.5899C61.3243 25.4328 61.5274 27.2775 61.7363 29.1213C61.7921 29.6132 62.4956 30.558 62.9584 30.7599C62.9702 30.7649 62.9874 30.7577 63.0401 30.7527C63.0737 30.6792 63.1251 30.5916 63.1546 30.4967C63.3108 29.9921 63.2495 29.4807 63.1932 28.9697C63.0115 27.3165 62.937 25.6588 62.9893 23.9965C62.9979 23.717 63.0492 23.4392 63.0874 23.1066H63.0869ZM68.6879 23.0503C68.9686 24.4167 69.2738 25.7713 69.6743 27.1096C69.9087 26.747 70.0654 26.3626 70.0068 25.9537C69.9278 25.4046 69.8174 24.8542 69.6553 24.3241C69.4959 23.8027 69.1952 23.3507 68.6879 23.0503ZM6.24328 22.9655C5.21281 23.697 4.68191 25.9215 5.30364 26.8436C5.61791 25.5467 5.91947 24.3015 6.24328 22.9655Z" fill="#EC1D25"/>
<path d="M54.6452 18.9689C54.4131 19.1254 54.2532 19.233 54.0784 19.351C54.1306 19.4572 54.1751 19.5484 54.2151 19.6296C54.266 19.6359 54.3046 19.6536 54.3227 19.6409C54.6683 19.4045 54.9417 19.4703 55.2192 19.783C55.4763 20.0721 55.7874 20.3126 56.0748 20.5749C56.0603 20.6021 56.0462 20.6298 56.0317 20.657C54.7941 20.3952 53.5543 20.1424 52.3199 19.8674C51.5097 19.6872 50.7068 19.4753 49.9011 19.2765C49.3012 19.1286 48.9996 18.9929 48.6699 18.7016C48.8202 18.6526 48.9356 18.5827 49.051 18.5827C49.9425 18.5827 50.8349 18.57 51.7245 18.6149C52.3599 18.6467 52.988 18.6998 53.6224 18.594C53.8536 18.5555 54.107 18.5722 54.335 18.6281C54.4472 18.6553 54.5239 18.8286 54.6452 18.9689Z" fill="#EC1D25"/>
<path d="M55.6824 19.4381C56.1157 19.2502 56.4718 19.2366 56.8473 19.4059C56.7638 18.9335 56.4032 18.6231 56.3151 18.1879C57.0404 18.0286 57.7506 17.8725 58.4791 17.7123C58.4791 17.7745 58.4945 17.8625 58.4768 17.9428C58.2911 18.7819 58.1022 19.6205 57.9078 20.4578C57.8642 20.6457 57.8265 20.8617 57.5122 20.7995C57.4391 20.6752 57.3573 20.5363 57.2642 20.3784C57.1834 20.4401 57.1176 20.4905 57.039 20.5504C56.5381 20.2472 56.0789 19.8992 55.6824 19.4381Z" fill="#EC1D25"/>
<path d="M50.4506 15.7187C51.4461 15.549 52.3449 15.8621 53.2568 15.8871C53.3831 16.4013 53.4966 16.8646 53.6083 17.3207C52.9208 17.3325 50.7863 16.3032 50.4506 15.7187Z" fill="#EC1D25"/>
<path d="M59.1181 14.8665C58.4609 15.2427 57.8773 15.5772 57.2933 15.9107C57.192 15.9683 57.0867 16.0201 56.9027 16.1172C57.1394 15.2627 56.7329 14.5575 56.6366 13.7452C57.4759 14.1245 58.2611 14.4794 59.1181 14.8665Z" fill="#EC1D25"/>
<path d="M55.9036 17.3928C55.855 17.2707 55.8182 17.1777 55.7674 17.0497C56.8723 16.4212 57.965 15.7995 59.0581 15.1778C59.0827 15.2078 59.1072 15.2373 59.1313 15.2672C58.9001 15.6244 58.5341 15.8581 58.2198 16.134C57.8914 16.4221 57.5604 16.7257 57.1816 16.9331C56.806 17.1382 56.3691 17.2317 55.9036 17.3933V17.3928Z" fill="#EC1D25"/>
<path d="M53.9163 16.0146C54.4081 16.1803 54.9726 16.0246 55.3555 16.5188C55.6048 16.2946 55.8555 16.482 56.1361 16.5705C55.8509 16.708 55.5571 16.8296 55.2832 16.9871C55.0148 17.1414 54.7678 17.3325 54.5171 17.5035C54.1488 17.0647 53.9571 16.5914 53.9158 16.0146H53.9163Z" fill="#EC1D25"/>
<path d="M20.39 15.9171C21.3842 15.8494 22.3633 15.5649 23.4701 15.7088C23.3515 15.8662 23.3029 15.9783 23.218 16.0346C22.9546 16.2088 22.6844 16.3763 22.4019 16.5161C22.2916 16.5705 22.1303 16.585 22.0123 16.5501C21.4668 16.3872 20.9282 16.2007 20.3873 16.0223C20.3882 15.9874 20.3896 15.952 20.3905 15.9171H20.39Z" fill="#EC1D25"/>
<path d="M17.8731 15.8998C17.6479 16.4008 17.2614 16.4875 16.864 16.5624C16.3472 16.6595 16.1683 16.2756 15.9067 15.9062C16.0434 15.7941 16.1678 15.692 16.3145 15.5717C16.4112 15.6275 16.5089 15.692 16.6133 15.7419C16.6769 15.7723 16.7741 15.8195 16.8159 15.7936C17.176 15.5722 17.4662 15.8549 17.8731 15.9003V15.8998Z" fill="#EC1D25"/>
<path d="M55.4749 19.2067C55.3264 18.9217 55.1888 18.6571 55.0198 18.3326C55.3863 18.2827 55.7024 18.2396 56.0312 18.1947C56.1593 18.4166 56.2783 18.6081 56.3823 18.8073C56.4568 18.9503 56.3355 19.1077 56.2488 19.0655C55.9608 18.9248 55.7692 19.1658 55.4749 19.2062V19.2067Z" fill="#EC1D25"/>
<path d="M60.9061 14.1658C61.0432 13.8033 61.3066 13.6363 61.7136 13.4575C61.5555 13.8296 61.4851 14.1286 61.2217 14.3764C61.1186 14.3079 61.0142 14.2384 60.9056 14.1658H60.9061Z" fill="#EC1D25"/>
<path d="M16.9716 14.822C16.8372 14.8288 16.6996 14.8202 16.5693 14.8456C16.1383 14.93 16.1346 14.9323 15.9534 14.4599C15.9852 14.4349 16.0166 14.4018 16.0543 14.3828C16.0929 14.3632 16.1383 14.3573 16.1515 14.3537C16.3 14.4585 16.4199 14.5661 16.5588 14.6342C16.6887 14.6977 16.839 14.719 16.9803 14.759C16.9771 14.7798 16.9744 14.8007 16.9712 14.8216L16.9716 14.822Z" fill="#EC1D25"/>
<path d="M55.6652 17.4945C55.2819 17.6102 55.0089 17.6923 54.736 17.7749L54.6865 17.6574C54.9308 17.5326 55.1729 17.4028 55.4231 17.2907C55.4495 17.2789 55.5226 17.3715 55.6652 17.4945Z" fill="#EC1D25"/>
<path d="M59.6685 15.201C59.5759 15.2581 59.4832 15.3158 59.3665 15.3879C59.3579 15.3144 59.337 15.2472 59.3506 15.2391C59.4374 15.1883 59.5314 15.1506 59.6231 15.1084C59.6381 15.1392 59.6535 15.1701 59.6685 15.201Z" fill="#EC1D25"/>
</svg>
